<svg id="Layer_1" data-name="Layer 1" xmlns="http://www.w3.org/2000/svg" viewBox="0 0 334.27 214.15"><defs><style>.cls-1{fill:#fff;}</style></defs><path class="cls-1" d="M36.1,144.18a1.76,1.76,0,0,0,1.77,1.88,1.55,1.55,0,0,0,2.05-1.35q2.36-12.35,5.29-31.31l2.41-15.68,2.52-15.63,2.12-12.92c.66-2,1.58-4.64,2.76-7.93a25.41,25.41,0,0,0,9.23-1.08A40.64,40.64,0,0,0,59.9,70.47,48.07,48.07,0,0,0,58.61,87.8Q59.78,98.72,66,103q6.63,4.65,14.27.71a8.91,8.91,0,0,0,5.34-.24,29.09,29.09,0,0,0,9.87-5.93,23.12,23.12,0,0,0,6.64-7.22,47.74,47.74,0,0,0,8.28-18.39q2.24-10.45-1.35-18.38-1.17-7.23-4.46-11.28a11.2,11.2,0,0,0-9.28-4.41,22.29,22.29,0,0,0-9.75,2.47,1.66,1.66,0,0,0-1-2,1.79,1.79,0,0,0-2.41.36l-1.64,1.64L78.75,42.1Q76.88,44,75.4,45.63q-3.75,4.11-6.46,7.57c-.47.62-.92,1.24-1.36,1.85A53.21,53.21,0,0,0,56.07,51,62.23,62.23,0,0,0,59.83,37c.35-2.19.69-4.6,1-7.22.2-1.8.39-4,.59-6.46A1.65,1.65,0,0,0,60,21.48a1.76,1.76,0,0,0-2.18.88,28.5,28.5,0,0,0-2.7,8.34l-.41,2.23-.35,2.23c-.31,2-.55,3.37-.71,4.23l-1,5.35-1,5.34L51.32,50,51.14,50h-.06V48.38a1.79,1.79,0,0,0-1.7-1.88,1.82,1.82,0,0,0-2.12,1.35l-.23.71-.3.76-.47-.06q.48-1.93,1.53-5.52l.82-2.88.83-2.94a54.2,54.2,0,0,0,2-11.27l.06-.12v-.94a1.69,1.69,0,0,0-1.94-1.88,1.68,1.68,0,0,0-1.93,1.88A51.55,51.55,0,0,1,46,37.1q-.59,2.64-1.53,6l-.88,3.06-.88,3h-.18a79.62,79.62,0,0,0-17.5,1.24,188.44,188.44,0,0,0,2.29-24.5,1.76,1.76,0,0,0-1.76-1.88,1.56,1.56,0,0,0-2.06,1.35l-.47,2.18a2,2,0,0,0,.24,1.35A196.71,196.71,0,0,1,21,51.32l-2,.53,1.47-9,1.35-8.93q1.71-11.4,2.82-17.86a1.85,1.85,0,0,0-1.47-2.35A1.64,1.64,0,0,0,20.89,15,246.39,246.39,0,0,0,15.6,40.45l-.17.23-.12.24a124.65,124.65,0,0,0-4.46,13.63c-2,.82-3.73,1.6-5.17,2.35a1.76,1.76,0,0,0-.94,1.93,1.6,1.6,0,0,0,1.41,1.59l1.58.24,1.59.11-.24.94L7.5,61.65l-1.65-.11C4.6,61.46,4,62.07,4,63.36a1.8,1.8,0,0,0,1.88,2l1.24.06,1.17.06Q6.15,75.92,3.74,94.43c-.16,1.37-.39,3-.71,4.81l-.41,2.53-.41,2.59q-1,6.69-1.53,10.69Q-.84,127.79,1,135.66A1.79,1.79,0,0,0,2,136.84a1.76,1.76,0,0,0,1.41.11,2.1,2.1,0,0,0,1.17-.82,1.76,1.76,0,0,0,.24-1.53q-2-8.39,0-23.08a1.56,1.56,0,0,0,1.76-1.35L8.55,97c.48-2.15,1-4.44,1.65-6.87Q8.49,110.06,7,121.33c-.16,1.1.37,1.7,1.58,1.82a1.91,1.91,0,0,0,2.24-1.29,161.7,161.7,0,0,0,5.46-23L17.25,93l1-5.82q1.17-7,2.11-11.63l1.94-9.39A139.27,139.27,0,0,0,39,64.06Q36.46,75.87,34.34,87L33.05,93.9q-.7,4-1.23,6.93a120.48,120.48,0,0,0-1.47,14,1.69,1.69,0,0,0,1.7,1.88,1.74,1.74,0,0,0,2.11-1.41q1.35-5.52,3.12-13.51l1.47-6.75,1.46-6.76q3.65-16.38,6.7-26.84l.88-.24.82-.23h1.12l-1.17,7.16A255,255,0,0,0,36.1,144.18ZM80.75,98.61a11,11,0,0,1-4.82-4.7l.88.06a21.28,21.28,0,0,0,3.59-.59,21,21,0,0,0,2.34,3.23A9.67,9.67,0,0,1,80.75,98.61Zm4.76-5.29c-.43-.51-.83-1-1.18-1.47a25.8,25.8,0,0,0,7.46-6.63A81.13,81.13,0,0,1,85.51,93.32Zm19.55-26.61a54,54,0,0,1-2.82,14.69c-.7,1.13-1.5,2.37-2.4,3.7-.59.9-1.35,2-2.29,3.35A36.1,36.1,0,0,1,90.73,96a4.66,4.66,0,0,1-1.29-.06,74.17,74.17,0,0,0,10-15.33A73,73,0,0,0,105.06,66.71Zm-23.49-10a28.45,28.45,0,0,1,4.05-6,16.28,16.28,0,0,1,5.7-2.76l6.93,2.82a16.77,16.77,0,0,1,1,9.45q-1.53,10-9.22,21a29.82,29.82,0,0,1-7.4,7.46l-.12.06a45.26,45.26,0,0,1-1.94-4.35c-.23-.58-.45-1.19-.64-1.82-.12-.27-.22-.53-.3-.76s-.16-.41-.23-.65Q75.76,70.12,81.57,56.67ZM73.64,65c.55-.86,1.1-1.68,1.65-2.47a36.22,36.22,0,0,0-.24,16.86q.58,2.47,1.41,5a58.85,58.85,0,0,0,2.41,6.23A5.68,5.68,0,0,1,74.11,90,37.71,37.71,0,0,1,73.64,65ZM70.35,91.32a24.68,24.68,0,0,0,5.11,9.34,15.06,15.06,0,0,1-8.57-2.35,18,18,0,0,1-3.65-7.87c-.27-1.29-.51-2.76-.7-4.4l-.23-2.18-.18-2.11q-.65-8.86,4.76-18.5A39.16,39.16,0,0,0,64,78.7a15.83,15.83,0,0,0,1.82,6.57A18.85,18.85,0,0,0,70.35,91.32Zm-8.52-34.6a23.55,23.55,0,0,1-5.52.82l.06-.12A1.65,1.65,0,0,0,56.31,56v0a1.77,1.77,0,0,0-1-1.24A61.53,61.53,0,0,1,61.83,56.72ZM16.66,74.58q-1,4.69-2.29,12.33Q15.48,74,16.13,67.29l.24-1.06,1.93.06ZM20.13,56.9l-.94.64H18L18.3,56l2.06-.52Zm21.32-3.18q-3.47.12-6.41.47a36.06,36.06,0,0,1,6.58-1.11Zm78.35,60,.16-.27c1.31-.36,3-.78,5-1.25l1.15-.28,1.14-.21c.84-.22,1.55-.39,2.13-.5,2-.51,4.35-1.14,7-1.91l7.05-2q8.73-2.51,14.13-3.66a1.53,1.53,0,0,0,1.31-1.31,1.89,1.89,0,0,0,.33-1.64,1.57,1.57,0,0,0-1.15-1.25l3.39-.87,3.33-1a44.32,44.32,0,0,0,6.49-2.51,1.61,1.61,0,0,0,.87-1.8,1.79,1.79,0,0,0-1.31-1.53,45,45,0,0,0-10.8-1.58,1.78,1.78,0,0,0-.66-1.31,1.5,1.5,0,0,0-1.52-.27q-2.52.65-6.12,1.91-10.92,1.2-26.52,7.2.75-4.14,1.69-11.9l.38-2.89.38-2.84c.26-2.11.51-3.91.77-5.4L131.1,60l2.62-14.73q3-17,5.51-29.42a1.67,1.67,0,0,0-1.37-2.19,1.45,1.45,0,0,0-2.07,1.2q-1.69,7.43-5.4,21.29L127.6,46.74Q126,52.64,125,57.39q-2.67,8.24-4.91,16.7l.44-5.3.49-5.24q.54-6.16,1-10.48a127.87,127.87,0,0,1,4.09-20.63,1.51,1.51,0,0,0,.71-1l.76-3.66a1.57,1.57,0,0,0-1.25-2.12,1.68,1.68,0,0,0-2.24,1.2q-5,14.07-7.32,42.62-1.08,13.55-4.25,33.35l-2.4,1a1.82,1.82,0,0,0,1,3.5l.76-.17-.49,2.9-3.6,2.29-3.71,2.07a2.06,2.06,0,0,0-.55.55,1.56,1.56,0,0,0-.65,1.69A1.83,1.83,0,0,0,104,118a14.33,14.33,0,0,0-2.72,4.31,1.39,1.39,0,0,0,0,1.36,1.53,1.53,0,0,0,1,.71,1.93,1.93,0,0,0,1.36,0,1.85,1.85,0,0,0,1-1,13,13,0,0,1,5.46-6L108.5,128a1.75,1.75,0,0,0,1.42,2.18,1.44,1.44,0,0,0,2.07-1.25l2.57-13.7,1.31-.49q-1,7.41-1.75,12.44a1.77,1.77,0,0,0,1.47,2.18c1.17.33,1.84-.07,2-1.2l2.13-14.35Zm28.82-15a40.48,40.48,0,0,0-4.81,2.08,1.84,1.84,0,0,0-.76.82c-1.93.33-4,.74-6.17,1.25A94.71,94.71,0,0,1,148.62,98.7ZM117,106.51l-.76.49.1-.71.71-.16Zm.82-5.79-.33.11.76-3.6Zm126.32-19,.26,3.15.27,3.2a1.77,1.77,0,0,0,1.91,1.78q1.76.12,1.71-1.53a1.5,1.5,0,0,0,2.12-.69q4.41-7.09,11.73-19.86l5.78-10q3.24-5.59,5.89-9.9.8,6.52,1.67,12.29A101.39,101.39,0,0,0,276.81,73q.88,9.79,1.63,15a1.42,1.42,0,0,0,1.32,1.32q1.61,11.13,2.51,19.2c.11.89.68,1.35,1.7,1.39s1.67-.38,1.81-1.25l.43-2.57a1.71,1.71,0,0,0,1.14-.84,153.89,153.89,0,0,0,10.41-21.4q1.77-4.45,4.28-11.18l2.09-5.59,2-5.54q2.34-6.14,5.53-14.82l5.48-14.82q6.69-18.08,11.27-29.57a1.48,1.48,0,0,0-.74-2,1.67,1.67,0,0,0-2.21.14A44.43,44.43,0,0,0,316.84,12a13.06,13.06,0,0,0,.36-3.51q1-3.71,1.4-6.44a1.54,1.54,0,0,0-1.09-1.7,1.65,1.65,0,0,0-2,.25Q311,5.44,305.7,18.05c-.59,1.12-1.25,2.38-2,3.78l-.9,1.9-.9,1.83q-2.28,4.82-3.4,6.75A202.65,202.65,0,0,0,286.21,59.2L285.39,55l-.83-4.22q-1.17-5.61-1.66-8.43a85.86,85.86,0,0,1-1.61-16.7,1.64,1.64,0,0,0-1.8-1.83,1.56,1.56,0,0,0-1.83,1.69L277.6,27v1.49a2.13,2.13,0,0,0-1.71.1,1.42,1.42,0,0,0-.77,1.46l0,.49.05.33.25,1.89a1.54,1.54,0,0,0-1.51.76l-.24.32-.29-.83a1.36,1.36,0,0,0-1.67-.95,2,2,0,0,0-1.65,1.26,149.29,149.29,0,0,1-8.84,16.4l-2.47,4-2.46,3.92q-3.23,5.1-4.93,8Q250,54.88,249.31,48.08q-.09-14.47-.44-22.59A1.77,1.77,0,0,0,248,24c0-2.57,0-4.6.07-6.11a1.7,1.7,0,0,0-.5-1.34,1.81,1.81,0,0,0-1.25-.49,1.74,1.74,0,0,0-1.22.39,1.62,1.62,0,0,0-.66,1.3q-.18,5.94,0,13.11c-.14,1.72-.26,3.38-.35,5L243,20.75a1.76,1.76,0,0,0-1.25-1.7,60.49,60.49,0,0,1-.26-6.23A1.64,1.64,0,0,0,239.74,11a1.58,1.58,0,0,0-1.89,1.68q-.89,30,4.27,67.68C242.26,81.38,242.92,81.83,244.1,81.69Zm66.67-48.08.74-1.89,1.63-3.91a117.08,117.08,0,0,1,7.48-15.34q-3.18,8.19-7.8,20.84L309,43.73l-3.88,10.42-2,5.43-2,5.54Q298.61,72,297,76.19a191.16,191.16,0,0,1-9.59,21.55l.91-6.41v-.06Q290.4,86.13,293,79l2.22-6.13,2.22-6.09Q302.86,51.7,307,42.44q1.14-2.49,3-6.93ZM283,68.38l-.32,1.2-.07-2.26Zm0,14q1.11-4.74,2.89-10.62a1.47,1.47,0,0,0,1.22-.4,1.34,1.34,0,0,0,.59-1,159.36,159.36,0,0,1,7.15-19.72c1.17-2.7,2.61-5.9,4.34-9.57l2.22-4.76,2.27-4.71c.48-1,1.09-2.47,1.82-4.27l2.65-4.58q-2.49,6.29-6.76,16.81L297.93,48l-3.4,8.4a160.12,160.12,0,0,0-7.76,26.79c-.73,2.58-1.35,4.88-1.86,6.92a1.74,1.74,0,0,0,.21,1.55L284.35,96c-.57-4.32-1.17-8.61-1.82-12.9A1.26,1.26,0,0,0,283,82.42Zm-31.52-3.64-1.18,2-.19-2.27A2,2,0,0,0,251.43,78.78ZM136.24,75.64a1.39,1.39,0,0,0-.63,1.7,1.47,1.47,0,0,0,1.4,1.14l1.36.11a1.56,1.56,0,0,0,1.45,1.46,1.11,1.11,0,0,0,1.46-1.11l0-.2.29,0-.76,3.72a1.51,1.51,0,0,0,.4,1.47,1.58,1.58,0,0,0,1.44.41l.95-.2.94-.21a47.1,47.1,0,0,0,10.69-1.66l2.61-.7,2.6-.76c2.27-.64,4-1.12,5.28-1.42a1.21,1.21,0,0,0,1-1.7,1.38,1.38,0,0,0-1.7-1.21l2.81-1,2.81-1c1.12-.42,2.16-.79,3.13-1.12a43.43,43.43,0,0,0,.33,6.13q1,8.7,6.87,13.39v.06q2.41,15,11.45,14.69,5.76-.24,10.63-9.87,8.52-.89,13.87-13.28,4.88-11.28,5.11-26.55a88.93,88.93,0,0,0,6.69-27.95,17.42,17.42,0,0,0,.06-2.53l.29-1.17.36-1.24a22.75,22.75,0,0,0,.52-9.51,10.9,10.9,0,0,0-3.11-6.52,6.5,6.5,0,0,0-6-1.59q-3.81.77-8,5.11c-1.17,1.21-2.37,2.57-3.58,4.05q-5.4-2.22-11,3.53a55.9,55.9,0,0,0-7.93,10.69q-1.47,2.4-3.23,5.81l-1.59,3-1.53,2.94Q178,54,176,60.21c-.45,1.38-.82,2.76-1.13,4.13a35.32,35.32,0,0,1-11.53,4.3c-1.6.3-3.83.67-6.7,1.09l-3.37.54-3.38.53a178.54,178.54,0,0,0,4.6-22,148,148,0,0,0,1.56-16.93c.08-2.27.14-5,.17-8.32l.08-4.26.08-4.3.88-3.24a1.36,1.36,0,0,0-.91-1.8,1.3,1.3,0,0,0-1.89.61Q147.67,25,143.9,49.59,140.73,62.73,139,74.14A27,27,0,0,0,136.24,75.64Zm53.59,25.45A10,10,0,0,1,187,97l-.35-.82-.29-.88a14.12,14.12,0,0,0,7.75-.06,10.73,10.73,0,0,0,2.41,1.35Q192.65,101.45,189.83,101.09Zm8.93-7.63-.3-.18-.23-.17c.47-.36,1-.77,1.53-1.24Zm13.45-8.87a15.74,15.74,0,0,1-7.05,8.52l1.18-2.88.46-1.29c.2-.47.36-.87.48-1.18q1.75-3.87,4.34-10.57,2.52-3.76,4.82-7.81A80.1,80.1,0,0,1,212.21,84.59Zm3.4-69.31.18-.24q3.89-4.52,6.52-3.17c1.45.75,2.43,2.7,2.94,5.88q-4-4.41-9.81-2.24Zm6.64,4.41q1.94,2.86,1.82,10.51-1.41,5.34-2.93,10.16A34.83,34.83,0,0,0,219.26,30a29.39,29.39,0,0,0-5-9.51Q219.8,16,222.25,19.69Zm-11.69,2.4.3.24.35.23a16.48,16.48,0,0,1,5.52,8.05q-2.94-5.22-7.11-7.11Zm-3.05,4.82q3.47.82,6.05,7.46a59.78,59.78,0,0,1,3.17,12.74A108.18,108.18,0,0,1,212.32,62l-1.23,3.47-.64,1.7-.59,1.65q-1.41,3.75-2.06,5.81l-.41,1.18L207,77c-.94,1.33-1.8,2.53-2.58,3.58l-3.94,5.06a11.07,11.07,0,0,1-5.76,4,17.65,17.65,0,0,1-2.34-8.22c-.08-1.3-.12-2.78-.12-4.47l.12-2.17,0-2.06a82.41,82.41,0,0,1,5.76-26.37,17.88,17.88,0,0,1,7.05,1.53,1.42,1.42,0,0,0,1.12.88,1.61,1.61,0,0,0,1.35-.29,2.11,2.11,0,0,0,.88-1.12,1.94,1.94,0,0,0-.12-1.59q-3.12-6.28-7.11-6.93Q204,33,207.51,26.91ZM206,21l-.59.82-.52.88a12.13,12.13,0,0,0-6.88,3.47Q202.28,21.44,206,21Zm-6.23,10.45q-2.06,4.05-4.05,9a22.94,22.94,0,0,0-5,5.23A57.46,57.46,0,0,1,199.81,31.43Zm-6.69,16.45q-.88,2.76-1.47,5.23c-.31,1.29-.59,2.44-.82,3.46-.35,1.49-.67,2.9-.94,4.23q-1.06,5.34-1.53,9.93Q187,83.36,190.12,90.17a13.28,13.28,0,0,1-5.46-1.59,88.62,88.62,0,0,1-.53-12.86A84.29,84.29,0,0,1,185.89,61q.83-2.41,1.71-4.53l1.64-3.17A11.48,11.48,0,0,1,193.12,47.88Zm-9.69,3.58c.23-.47.6-1.27,1.11-2.41l.36-.7.35-.77c.27-.58.53-1.13.76-1.64,1.37-2.82,2.65-5.3,3.82-7.46a107.15,107.15,0,0,0-4.93,12.57q-.89,2.64-1.65,5.29c-.39,1.45-.72,2.74-1,3.87s-.49,2.39-.76,4.11a38.89,38.89,0,0,0-2.06,8.58,72,72,0,0,0,.36,11.16,10.84,10.84,0,0,1-1.24-2.41q-2.34-6.75-.53-15.5A64.16,64.16,0,0,1,183.43,51.46ZM174.2,68.2l-.06.51-2.67.68A27.35,27.35,0,0,0,174.2,68.2Zm-25.4,6.38L149,74c1.71-.37,3.93-.76,6.67-1.19l3.39-.49,3.32-.56c-3.43.92-6.49,1.83-9.2,2.73-1.59.33-3.14.59-4.64.78ZM143,68.68a1.26,1.26,0,0,0,.51,0l-.69,4-.56.2ZM84.38,196.55q-6.21,3.19-13.44,6.2A108.71,108.71,0,0,1,56.8,205.5l1-4.86L59,195.07a1.9,1.9,0,0,0,2.31-1.47l1.4-5.69-.7,3.58L61.41,195a2,2,0,0,0,1.6,2.56,1.76,1.76,0,0,0,2.49-1.41q3.59-14.26,7.11-35.38l1.4-8.9,1.41-8.89q1.72-11,2.94-17.79a92.68,92.68,0,0,0,13-4.48,1.88,1.88,0,0,0,1-1.6,2,2,0,0,0-.64-1.72q-4.8-4.74-19.52-.77a114.9,114.9,0,0,0-11.32,3.77l-4.74,1.86-1,.38-.9.39c-.68.25-1.23.47-1.66.64a2.17,2.17,0,0,0-1.47,1.79,2,2,0,0,0,1,2l.51.32a1.75,1.75,0,0,0,2.69-.65l2.81-1a2.2,2.2,0,0,0-.13,2.17,1.82,1.82,0,0,0,1.86,1.15c1.11,0,2.13,0,3.07,0a20.86,20.86,0,0,1,3.2.45q-3.9,26.81-11.65,65.77-1.22,5.7-2,10.43A109.5,109.5,0,0,0,37.86,209a2.25,2.25,0,0,0-1.28,1.09,2.31,2.31,0,0,0,.77,2.82,2,2,0,0,0,1.66.19A87.92,87.92,0,0,1,48.29,211a2.14,2.14,0,0,0,.26,2.23,2,2,0,0,0,2.24.84,150,150,0,0,0,22.26-7.55,41.79,41.79,0,0,0,13.5-6.34,1.93,1.93,0,0,0,.65-2.88A1.86,1.86,0,0,0,84.38,196.55Zm-11.2-70-.06.13-.19-.07Zm41.87,18.26a1.11,1.11,0,0,0-1.22-.26c-.46.18-1,.44-1.74.79l0-.4.56-2.83a1.26,1.26,0,0,0-.3-1.26,1.33,1.33,0,0,0-1.18-.48,1.17,1.17,0,0,0-1.22.09,90.92,90.92,0,0,0-17.6,14.63q2.67-9.75,4.1-16.37A1.33,1.33,0,0,0,95.32,137a1.16,1.16,0,0,0-1.63.78c.32-1.64.62-3,.89-4.17a1.41,1.41,0,0,0-.74-1.62,1.2,1.2,0,0,0-1.7.22A23.06,23.06,0,0,0,88,139c-.47,1.08-.95,2.34-1.44,3.79l-.61,1.92-.61,1.91-.78,2.49-.79,2.48c-.64,2-1.14,3.69-1.52,5a38.6,38.6,0,0,0-1.53,10.28,1.19,1.19,0,0,0,.7,1.13c-1.39,3.69-1.86,6.44-1.39,8.24l-.13,1.13,0,0h0l-.09.4a1.19,1.19,0,0,0,1.09,1.35q-.44,2.7-.57,4.92a1.25,1.25,0,0,0,1.14,1.35l-.05.61c-.09.81.32,1.28,1.22,1.39s1.44-.22,1.61-1q.62-3,1.44-6.53a198.87,198.87,0,0,1,15-22l1.13-1.18,1.09-1.18a50.6,50.6,0,0,1,5.1-4c-.24,1.56-.41,2.94-.53,4.13-.17.7-.36,1.5-.56,2.4a56.07,56.07,0,0,0-1.79,11.37c-.09,1.51-.17,3.4-.26,5.66l0,1.35v1.35c-.06,1-.11,1.86-.14,2.53a2,2,0,0,0,.09.56,47.27,47.27,0,0,0,.7,13.59,1.23,1.23,0,0,0,1.57,1c.9-.12,1.32-.59,1.26-1.4a68,68,0,0,1,.44-12.28c.32,1.16.66,2.24,1,3.22l.13,4.31.22,4.32q.25,4.88.83,8.58l0,.39c.15.81.67,1.15,1.57,1s1.32-.58,1.26-1.39c-.11-2.94-.16-6.54-.13-10.81a1.12,1.12,0,0,0,1.18-1.35A209.07,209.07,0,0,1,115,168l.26-5.53.22-5.49q.26-6.28.17-11A1.33,1.33,0,0,0,115.05,144.81ZM84,161.45a68.35,68.35,0,0,1,6.27-21.08q-.73,3.75-1.52,8.19Q86,155.4,84,161.45Zm9.89-3-1.39,2.31c-1.11,1.71-2.08,3.17-2.92,4.36l1-3.36a69.21,69.21,0,0,1,4.79-5.57Zm15.33-13.72-.43,2.35-1.53,1q-3.52,1-7.45,6.32l-.17.26-.09.05q4.83-7.2,9.67-10.24Zm3.62,4.4-.05.52a1.52,1.52,0,0,0-.52-.17v-.13a1.36,1.36,0,0,0-.13-.53c.49-.26.74-.31.74-.17Zm221.34-31.56a2.16,2.16,0,0,0-2.68-1.75l-4,.61-4,.6a1.94,1.94,0,0,0-.07-.87l2-.54,2-.54c1.22-.26,1.73-1.09,1.55-2.48s-.9-2-2.15-1.88q-12.28,1.47-26.12,1.88l.07-.61a1.89,1.89,0,0,0-1.61-2.08,2.22,2.22,0,0,0-2.55.94l-.54.94-.61.88-2.88.06a2.17,2.17,0,0,0-1.35.47,1.87,1.87,0,0,0-.8,1.15l-1.35,8-8.79,3.35a2.25,2.25,0,0,0-1.35,1.35l-1.45.3a17,17,0,0,0-1.95-5.87q-4.28-7.86-13.88-11.36-8.09-5.27-21.68-2.32c-1.73.14-3.58.38-5.54.7q1-8.2,2.17-15.92a2.54,2.54,0,0,0-.42-2,2.1,2.1,0,0,0-1.82-.91q-4.08,0-6.53,8.49a58.12,58.12,0,0,0-1.47,6.66c-.14.89-.26,1.8-.35,2.74-.05.37-.1.75-.14,1.12l-.07.49-.07.42-.07.85a38.3,38.3,0,0,0-3.72,1.12,2.18,2.18,0,0,0-1.33,1q-14.9-2.37-34.64,8.12a1.51,1.51,0,0,0-.93,1.77l-1.46.89a1.79,1.79,0,0,0-.82,1.29,2.29,2.29,0,0,0,.24,1.41,1.77,1.77,0,0,0,2.59.63,33.19,33.19,0,0,1,6.21-3.26,2,2,0,0,1,2.12.81,9.17,9.17,0,0,1,.25,3.94q-.27,4.29-1.06,10l-.74,4.94-.68,5c-.3,1.88-.75,4.06-1.32,6.53l-.8,3.23-.87,3.24a76.33,76.33,0,0,0-2.4,13,1.56,1.56,0,0,0,.53,1.41,2,2,0,0,0,1.36.46l-.58,1.94-.64,1.94-.58.06a2.24,2.24,0,0,0-1,0L181.23,181a1.62,1.62,0,0,0-1.34,1.59,2,2,0,0,0,.83,1.88q-2.75,1.71-7.55,4.44a1.93,1.93,0,0,0,1.48,3.52q4.11-1.2,8.8-2.52c0,.71.09,1.26.13,1.65a1.89,1.89,0,0,0,1.71,1.87,1.7,1.7,0,0,0,2.11-1.36l.52-1.77.58-1.76q8.79-2.4,19.71-5a1.6,1.6,0,0,0,1.34-2.06,2,2,0,0,0-1.89-1.75,84.4,84.4,0,0,0-16.39-.39q7.86-26.29,13.25-50.81a43.52,43.52,0,0,0,1.44-6.53l.12-.35,0-.53a1.27,1.27,0,0,0-.36-1.18l4.76-.67,4.75-.61c1.86-.25,3.54-.51,5.05-.77a1.81,1.81,0,0,0-.14.61,2.56,2.56,0,0,0,.7,1.55,2.59,2.59,0,0,0,1.54.7,2.25,2.25,0,0,0,1.82-.56l.21-.14.28-.21-1.4,15q-.92,8.84-1.61,14.94-1.89,17-4.56,29.74a2.09,2.09,0,0,0,1.68,2.81,2,2,0,0,0,2.81-1.54q1.18-3.93,3.08-10.53l-.42,2.18-.35,2.24a2.16,2.16,0,0,0,1.76,2.81,1.85,1.85,0,0,0,2.66-1.54,111.81,111.81,0,0,0,2.67-14.81q1.6-8.34,3.86-19.22l3.93-19.08q10.17-2.52,16.2.92,7.15,4.07,4.49,14.94-1.12,2.44-2.74,5.54L255.4,147l-.7,1.27-.63,1.19q-4.22,7.86-7.79,13.82a140.92,140.92,0,0,1-12.49,12.34q-4.56,4.16-13.32,11.23a1.76,1.76,0,0,0-.56,2.38,2.45,2.45,0,0,0,2.1,1.48l-.07.07a1.88,1.88,0,0,0-.56,2.17,48.68,48.68,0,0,1-12.49,6.88,2.23,2.23,0,0,0-1.47,3,1.84,1.84,0,0,0,2.74,1.48q16-6,29.11-20.7,26.23-20.84,33.25-38.72,4.44-6.92,5.09-12.94l4.75-1,5.31-1.21a121.53,121.53,0,0,0-3.83,16.12,31.46,31.46,0,0,0-11.95,7.32,2.48,2.48,0,0,0-.67,1.54,2.07,2.07,0,0,0,.67,1.62,12.46,12.46,0,0,0,10,3.42l-.8,7-.74,7a43.2,43.2,0,0,1-5.1-.41,2.42,2.42,0,0,0-1.75.41,2.83,2.83,0,0,0-.94,1.41,2.22,2.22,0,0,0,.13,1.54,1.93,1.93,0,0,0,1.41.94l2.29.27-.81.27a2.24,2.24,0,0,0-1.55,2.55,1.77,1.77,0,0,0,2.09,1.81l3.22-.06-.13.8a40,40,0,0,0-7.59,3.43,1.82,1.82,0,0,0-1,1.41,2.13,2.13,0,0,0,.27,1.61,2.41,2.41,0,0,0,1.21,1,1.88,1.88,0,0,0,1.74-.21,42.71,42.71,0,0,1,4.64-2.28L278.2,190l-1.07,5.78a2.09,2.09,0,0,0,1.67,2.68c1.43.41,2.31-.08,2.62-1.47q.54-2.68,1.08-6.11l.8-4.37a75.34,75.34,0,0,1,8.66-1.74l4.37-.61,4.43-.6q11.08-1.41,17.32-4.1a1.64,1.64,0,0,0,1-2.35,2.21,2.21,0,0,0-2.15-1.74l-1.14-.07-1.21-.07a54.16,54.16,0,0,0,8.33-4.5,2.12,2.12,0,0,0,1-2.48,2,2,0,0,0-2.08-1.68,54.93,54.93,0,0,0-14.91,1.81l-3.63.94-3.69,1q-4.64,1.27-7.25,1.88l1.88-9.6,1.81-9.54a52.09,52.09,0,0,0,13.57-2.82,2.24,2.24,0,0,0,1.47-1.68,22.37,22.37,0,0,0,3.16-1.81,2,2,0,0,0,1-2.42,2.2,2.2,0,0,0-2.08-1.68,71.19,71.19,0,0,0-15.37.07q1.33-8.39,2.08-15.78,21.42-4.91,32.7-6.85C334,119.87,334.54,119,334.13,117.61Zm-140.2,65.48-4.1,1.08.23-.77C191.39,183.28,192.68,183.17,193.93,183.09Zm8.38-62.42-1,4.58-1,4.59q-1.16,3.58-3.42,9l.39-4.41.45-4.35a65.66,65.66,0,0,1,1.48-8.64v-.24c1-.24,2.07-.46,3.17-.66v.06Zm24.82,23.71L226,148.52l1.26-13.75Zm6.52-19.29a6.45,6.45,0,0,0-.84.21l.07-.42.91-.35Zm10.74-9.54a45.62,45.62,0,0,0-9,2.94l-2.11.84.21-2.24.21-2.24c1.27-.52,2.72-1,4.35-1.55A54.35,54.35,0,0,1,251,114l.35.07.28.14A59.8,59.8,0,0,0,244.39,115.55Zm15.78,3.78.49.14.35.5.28.56Zm9.61,18.88a40.72,40.72,0,0,1-2.24,6.73,95.61,95.61,0,0,1-8.77,10.38q8.7-13,9.19-25.46c0-.84,0-1.71-.07-2.6a32.15,32.15,0,0,0,.35-3.29Q271.89,128.88,269.78,138.21Zm12.65,17a7.86,7.86,0,0,1-5.44-.74,29.63,29.63,0,0,1,3.89-2.55,2.16,2.16,0,0,0,1.62,2.69Zm6,8.26-1,9.67-1.81.2q1.55-9.33,3.08-19.54l.61-.07Zm1.81-19.54h-.07l.14-1.07c.09-.54.22-1.88.4-4l.13-1.35.14-1.41q.14-1.74.33-3.15l.54-1.68Q291,137.35,290.22,143.93Zm21.15,27.87a71.89,71.89,0,0,1-9.94,3.35,14.25,14.25,0,0,0-1.88-.53C304.75,173.23,308.68,172.29,311.37,171.8Zm-10.81-53.52v-1.14l3.69-.14ZM172.05,166.42a21.92,21.92,0,0,0-2.73-5.82,1.56,1.56,0,0,0-.68-1,36.92,36.92,0,0,0-9-8.25c-1.58-1-3.35-2.1-5.33-3.22q-1.86-1.11-5.21-2.85l-3.9-2-3.78-2.11q-2.79-1.6-2.54-3.72A78.1,78.1,0,0,1,158,127.26a49.74,49.74,0,0,1,4.83-1.55,42.73,42.73,0,0,1,8.18,1.18c-.08.33-.2.74-.37,1.24-.37.78-.8,1.61-1.3,2.48-.66,1.07-1.47,2.25-2.42,3.53l-1.05,1.3a1.69,1.69,0,0,0-.31.43.84.84,0,0,0-.25.25,1.9,1.9,0,0,0-.37,2,4.72,4.72,0,0,0-.56.68l-.24.25-.25.31c-.29.33-.48.53-.56.61a2.38,2.38,0,0,0-.5,1.62,2.47,2.47,0,0,0,.69,1.36,1.83,1.83,0,0,0,1.3.62,1.65,1.65,0,0,0,1.42-.68q1.18-1.49,3.16-3.72l3.1-3.66a71.65,71.65,0,0,0,5.83-7.74,1.78,1.78,0,0,0,.12-1.8,2.27,2.27,0,0,0-1.36-1.24l-.25-.06Q179.91,113,165.73,112q-11.78-.87-26.09,13.81a159.34,159.34,0,0,0-10.84,12.77c-.75,1-1.55,2-2.42,3.16l-1.11,1.49-1.12,1.42c-1.82,2.4-3.16,4.15-4,5.27a2.38,2.38,0,0,0-.56,1.73,1.66,1.66,0,0,0,1,1.49,79,79,0,0,0,11.78,4.34c1.65.49,3.68,1.05,6.07,1.67l6.14,1.61a45.32,45.32,0,0,1,7.06,2.54q-9.6,2.73-14.69,6.51a17.84,17.84,0,0,0-7.56,12.95,1.54,1.54,0,0,0,.56,1.42,2.36,2.36,0,0,0,1.49.62,14.33,14.33,0,0,0,1.55.07,1.58,1.58,0,0,0,.56.55,16,16,0,0,0,6.13,2q6.08,1.73,14.19-1.37a35.18,35.18,0,0,0,12.64-5.95,17.06,17.06,0,0,0,4.22-4.83A9.91,9.91,0,0,0,172.05,166.42ZM161.7,116.54a8.41,8.41,0,0,1,6.32.12,30.43,30.43,0,0,0-11.71,2.3A36.27,36.27,0,0,1,161.7,116.54Zm-31.29,28.88.18.06a7.12,7.12,0,0,0,1.37,2.66l.18.25c-2-.7-3-.87-3.22-.5A13,13,0,0,1,130.41,145.42Zm-.75,7.06q-7.48.5-4.52-2.6l.19.12.12.13c2.36,1.07,5.06,2.21,8.12,3.4C131.54,153,130.24,152.65,129.66,152.48Zm20.39,26.21a71.42,71.42,0,0,1-7.31.25q-7.5.06-3-3.72a31.18,31.18,0,0,1,4.47-3c.7-.42,1.46-.85,2.29-1.3.29-.17.6-.33.93-.5l.43-.25.37-.18a70.26,70.26,0,0,1,7.69-3.54l1.05-.31q1.92,1.25,3.72,2.67Q160.52,180.18,150.05,178.69Zm17.1-6.44a7.85,7.85,0,0,0-1.92-4.9q2.47,1.86,2.6,3.78A3.78,3.78,0,0,1,167.15,172.25Z"/></svg>